<svg width="28" height="29" viewBox="0 0 28 29" fill="none" xmlns="http://www.w3.org/2000/svg">
<path fill-rule="evenodd" clip-rule="evenodd" d="M6.912 1.92C9.08801 0.639994 11.4453 0 13.984 0C16.5227 0 18.88 0.639994 21.056 1.92C23.168 3.15734 24.8427 4.83199 26.08 6.944C27.36 9.12001 28 11.4773 28 14.016C28 16.5547 27.36 18.912 26.08 21.088C24.8427 23.2 23.168 24.8747 21.056 26.112C18.88 27.392 16.5227 28.032 13.984 28.032C11.4453 28.032 9.08801 27.392 6.912 26.112C4.79999 24.8747 3.13601 23.2 1.92 21.088C0.639994 18.912 0 16.5547 0 14.016C0 11.4773 0.639994 9.12001 1.92 6.944C3.13601 4.83199 4.79999 3.15734 6.912 1.92ZM6.064 14.72L11.2699 19.8993C11.3134 19.9309 11.3647 19.9467 11.424 19.9467C11.5129 19.9467 11.584 19.9111 11.6373 19.84L21.904 8.96C21.9573 8.88889 21.984 8.81333 21.984 8.73333C21.984 8.65333 21.9484 8.58667 21.8773 8.53333L20.064 6.8C20.0107 6.74667 19.9396 6.72 19.8507 6.72C19.7618 6.72 19.6907 6.75556 19.6373 6.82667L11.5573 15.4133C11.4862 15.4667 11.4107 15.4933 11.3307 15.4933C11.2507 15.4933 11.184 15.4667 11.1307 15.4133L8.25067 12.5333C8.17955 12.48 8.104 12.4533 8.024 12.4533C7.944 12.4533 7.87733 12.48 7.824 12.5333L6.064 14.2667C6.01067 14.3378 5.984 14.4133 5.984 14.4933C5.984 14.5733 6.01067 14.6489 6.064 14.72Z" fill="#82D24F"/>
</svg>
